<mxfile host="app.diagrams.net" modified="2022-03-31T05:07:56.806Z" agent="5.0 (Macintosh; Intel Mac OS X 10_15_7) AppleWebKit/537.36 (KHTML, like Gecko) Chrome/99.0.4844.74 Safari/537.36" etag="rqJFQlqpG32XVlSdpgdi" version="16.6.4" type="github">
  <diagram id="oPe7yaeBCDTeAMdVdXqK" name="Page-1">
    <mxGraphModel dx="2496" dy="2522" grid="1" gridSize="10" guides="1" tooltips="1" connect="1" arrows="1" fold="1" page="1" pageScale="1" pageWidth="850" pageHeight="1100" math="0" shadow="0">
      <root>
        <mxCell id="0" />
        <mxCell id="1" parent="0" />
        <mxCell id="U-6AOmyAD6f15KpOmuhh-1" value="&lt;font&gt;&lt;b&gt;&lt;span style=&quot;font-size: 25px&quot;&gt;Django Student Planner ERD&lt;/span&gt;&lt;br&gt;&lt;font style=&quot;font-size: 18px&quot;&gt;DB: djangoplanner&lt;/font&gt;&lt;br&gt;&lt;/b&gt;&lt;/font&gt;" style="text;html=1;resizable=0;autosize=1;align=center;verticalAlign=middle;points=[];fillColor=none;strokeColor=none;rounded=0;" vertex="1" parent="1">
          <mxGeometry x="820" y="-110" width="360" height="40" as="geometry" />
        </mxCell>
        <mxCell id="U-6AOmyAD6f15KpOmuhh-13" style="edgeStyle=orthogonalEdgeStyle;rounded=0;orthogonalLoop=1;jettySize=auto;html=1;exitX=1;exitY=0.75;exitDx=0;exitDy=0;entryX=0;entryY=0.816;entryDx=0;entryDy=0;entryPerimeter=0;fontSize=6;" edge="1" parent="1" source="U-6AOmyAD6f15KpOmuhh-2" target="U-6AOmyAD6f15KpOmuhh-4">
          <mxGeometry relative="1" as="geometry" />
        </mxCell>
        <mxCell id="U-6AOmyAD6f15KpOmuhh-2" value="&lt;table border=&quot;1&quot; width=&quot;100%&quot; cellpadding=&quot;4&quot; style=&quot;width: 100% ; height: 100% ; border-collapse: collapse&quot;&gt;&lt;tbody&gt;&lt;tr style=&quot;background-color: #a7c942 ; color: #ffffff ; border: 1px solid #98bf21&quot;&gt;&lt;th align=&quot;left&quot;&gt;user_id&lt;span&gt;	&lt;/span&gt;&lt;/th&gt;&lt;th align=&quot;left&quot;&gt;int&lt;/th&gt;&lt;th align=&quot;left&quot;&gt;pk&lt;/th&gt;&lt;/tr&gt;&lt;tr style=&quot;border: 1px solid #98bf21&quot;&gt;&lt;td&gt;username&lt;/td&gt;&lt;td&gt;varchar(150)&lt;/td&gt;&lt;td&gt;&lt;/td&gt;&lt;/tr&gt;&lt;tr style=&quot;background-color: #eaf2d3 ; border: 1px solid #98bf21&quot;&gt;&lt;td&gt;email&lt;/td&gt;&lt;td&gt;varchar(254)&lt;/td&gt;&lt;td&gt;&lt;/td&gt;&lt;/tr&gt;&lt;tr style=&quot;border: 1px solid #98bf21&quot;&gt;&lt;td&gt;password&lt;/td&gt;&lt;td&gt;varchar(128)&lt;/td&gt;&lt;td&gt;&lt;/td&gt;&lt;/tr&gt;&lt;tr style=&quot;background-color: #eaf2d3 ; border: 1px solid #98bf21&quot;&gt;&lt;td&gt;first_name&lt;/td&gt;&lt;td&gt;&lt;span style=&quot;background-color: rgb(248 , 249 , 250)&quot;&gt;varchar(150)&lt;/span&gt;&lt;br&gt;&lt;/td&gt;&lt;td&gt;&lt;br&gt;&lt;/td&gt;&lt;/tr&gt;&lt;tr&gt;&lt;td&gt;is_superuser&lt;/td&gt;&lt;td&gt;boolean&lt;/td&gt;&lt;td&gt;&lt;br&gt;&lt;/td&gt;&lt;/tr&gt;&lt;tr&gt;&lt;td&gt;last_login&lt;/td&gt;&lt;td&gt;timestamptz&lt;/td&gt;&lt;td&gt;&lt;br&gt;&lt;/td&gt;&lt;/tr&gt;&lt;tr&gt;&lt;td&gt;date_joined&lt;/td&gt;&lt;td&gt;timestamptz&lt;/td&gt;&lt;td&gt;&lt;br&gt;&lt;/td&gt;&lt;/tr&gt;&lt;tr&gt;&lt;td&gt;&lt;br&gt;&lt;/td&gt;&lt;td&gt;&lt;br&gt;&lt;/td&gt;&lt;td&gt;&lt;br&gt;&lt;/td&gt;&lt;/tr&gt;&lt;/tbody&gt;&lt;/table&gt;" style="text;html=1;strokeColor=#c0c0c0;fillColor=#ffffff;overflow=fill;rounded=0;fontSize=25;" vertex="1" parent="1">
          <mxGeometry x="-140" y="170" width="610" height="310" as="geometry" />
        </mxCell>
        <mxCell id="U-6AOmyAD6f15KpOmuhh-3" value="auth_user (django user model)" style="text;html=1;resizable=0;autosize=1;align=center;verticalAlign=middle;points=[];fillColor=none;strokeColor=none;rounded=0;fontSize=25;" vertex="1" parent="1">
          <mxGeometry x="-140" y="120" width="360" height="40" as="geometry" />
        </mxCell>
        <mxCell id="U-6AOmyAD6f15KpOmuhh-12" style="edgeStyle=orthogonalEdgeStyle;rounded=0;orthogonalLoop=1;jettySize=auto;html=1;exitX=1;exitY=0.5;exitDx=0;exitDy=0;fontSize=6;entryX=0.648;entryY=-0.011;entryDx=0;entryDy=0;entryPerimeter=0;" edge="1" parent="1" source="U-6AOmyAD6f15KpOmuhh-4" target="U-6AOmyAD6f15KpOmuhh-10">
          <mxGeometry relative="1" as="geometry">
            <mxPoint x="950" y="585" as="targetPoint" />
          </mxGeometry>
        </mxCell>
        <mxCell id="U-6AOmyAD6f15KpOmuhh-4" value="&lt;table border=&quot;1&quot; width=&quot;100%&quot; cellpadding=&quot;4&quot; style=&quot;width: 100% ; height: 100% ; border-collapse: collapse&quot;&gt;&lt;tbody&gt;&lt;tr style=&quot;background-color: #a7c942 ; color: #ffffff ; border: 1px solid #98bf21&quot;&gt;&lt;th align=&quot;left&quot;&gt;calendar_item_id&lt;span style=&quot;white-space: pre&quot;&gt;	&lt;/span&gt;&lt;/th&gt;&lt;th align=&quot;left&quot;&gt;int&lt;/th&gt;&lt;th align=&quot;left&quot;&gt;pk&lt;/th&gt;&lt;/tr&gt;&lt;tr style=&quot;border: 1px solid #98bf21&quot;&gt;&lt;td&gt;title&lt;span style=&quot;white-space: pre&quot;&gt;	&lt;/span&gt;&lt;/td&gt;&lt;td&gt;varchar(255)&lt;/td&gt;&lt;td&gt;&lt;br&gt;&lt;/td&gt;&lt;/tr&gt;&lt;tr style=&quot;background-color: #eaf2d3 ; border: 1px solid #98bf21&quot;&gt;&lt;td&gt;description&lt;/td&gt;&lt;td&gt;text&lt;/td&gt;&lt;td&gt;&lt;/td&gt;&lt;/tr&gt;&lt;tr style=&quot;border: 1px solid #98bf21&quot;&gt;&lt;td&gt;completed&lt;/td&gt;&lt;td&gt;boolean&lt;/td&gt;&lt;td&gt;&lt;/td&gt;&lt;/tr&gt;&lt;tr style=&quot;background-color: #eaf2d3 ; border: 1px solid #98bf21&quot;&gt;&lt;td&gt;created_at&lt;/td&gt;&lt;td&gt;date/timestamp/timestamptz&lt;/td&gt;&lt;td&gt;&lt;br&gt;&lt;/td&gt;&lt;/tr&gt;&lt;tr&gt;&lt;td&gt;type&lt;/td&gt;&lt;td&gt;array [ work, school, personal ]&lt;/td&gt;&lt;td&gt;&lt;br&gt;&lt;/td&gt;&lt;/tr&gt;&lt;tr&gt;&lt;td&gt;due_date&lt;/td&gt;&lt;td&gt;date&lt;/td&gt;&lt;td&gt;&lt;br&gt;&lt;/td&gt;&lt;/tr&gt;&lt;tr&gt;&lt;td&gt;user_id&lt;/td&gt;&lt;td&gt;int&lt;/td&gt;&lt;td&gt;fk&lt;/td&gt;&lt;/tr&gt;&lt;tr&gt;&lt;td&gt;calendar_id&lt;/td&gt;&lt;td&gt;int&lt;/td&gt;&lt;td&gt;fk&lt;/td&gt;&lt;/tr&gt;&lt;/tbody&gt;&lt;/table&gt;" style="text;html=1;strokeColor=#c0c0c0;fillColor=#ffffff;overflow=fill;rounded=0;fontSize=25;" vertex="1" parent="1">
          <mxGeometry x="1090" y="130" width="680" height="380" as="geometry" />
        </mxCell>
        <mxCell id="U-6AOmyAD6f15KpOmuhh-5" value="calendar_item (events/projects)" style="text;html=1;resizable=0;autosize=1;align=center;verticalAlign=middle;points=[];fillColor=none;strokeColor=none;rounded=0;fontSize=25;" vertex="1" parent="1">
          <mxGeometry x="1090" y="60" width="360" height="40" as="geometry" />
        </mxCell>
        <mxCell id="U-6AOmyAD6f15KpOmuhh-9" style="edgeStyle=orthogonalEdgeStyle;rounded=0;orthogonalLoop=1;jettySize=auto;html=1;exitX=0.75;exitY=1;exitDx=0;exitDy=0;entryX=0.415;entryY=0;entryDx=0;entryDy=0;entryPerimeter=0;fontSize=6;" edge="1" parent="1" source="U-6AOmyAD6f15KpOmuhh-6" target="U-6AOmyAD6f15KpOmuhh-4">
          <mxGeometry relative="1" as="geometry" />
        </mxCell>
        <mxCell id="U-6AOmyAD6f15KpOmuhh-6" value="&lt;table border=&quot;1&quot; width=&quot;100%&quot; cellpadding=&quot;4&quot; style=&quot;width: 100% ; height: 100% ; border-collapse: collapse&quot;&gt;&lt;tbody&gt;&lt;tr style=&quot;background-color: #a7c942 ; color: #ffffff ; border: 1px solid #98bf21&quot;&gt;&lt;th align=&quot;left&quot;&gt;calendar_id&lt;span style=&quot;white-space: pre&quot;&gt;	&lt;/span&gt;&lt;/th&gt;&lt;th align=&quot;left&quot;&gt;int&lt;/th&gt;&lt;th align=&quot;left&quot;&gt;pk&lt;/th&gt;&lt;/tr&gt;&lt;tr style=&quot;border: 1px solid #98bf21&quot;&gt;&lt;td&gt;user_id&lt;/td&gt;&lt;td&gt;int&lt;/td&gt;&lt;td&gt;fk&lt;/td&gt;&lt;/tr&gt;&lt;/tbody&gt;&lt;/table&gt;" style="text;html=1;strokeColor=#c0c0c0;fillColor=#ffffff;overflow=fill;rounded=0;fontSize=25;" vertex="1" parent="1">
          <mxGeometry x="710" y="110" width="280" height="130" as="geometry" />
        </mxCell>
        <mxCell id="U-6AOmyAD6f15KpOmuhh-7" value="calendar" style="text;html=1;resizable=0;autosize=1;align=center;verticalAlign=middle;points=[];fillColor=none;strokeColor=none;rounded=0;fontSize=25;" vertex="1" parent="1">
          <mxGeometry x="710" y="70" width="110" height="40" as="geometry" />
        </mxCell>
        <mxCell id="U-6AOmyAD6f15KpOmuhh-8" value="" style="endArrow=classic;html=1;rounded=0;fontSize=6;entryX=0;entryY=0.5;entryDx=0;entryDy=0;" edge="1" parent="1" target="U-6AOmyAD6f15KpOmuhh-6">
          <mxGeometry width="50" height="50" relative="1" as="geometry">
            <mxPoint x="470" y="280" as="sourcePoint" />
            <mxPoint x="520" y="230" as="targetPoint" />
          </mxGeometry>
        </mxCell>
        <mxCell id="U-6AOmyAD6f15KpOmuhh-10" value="&lt;table border=&quot;1&quot; width=&quot;100%&quot; cellpadding=&quot;4&quot; style=&quot;width: 100% ; height: 100% ; border-collapse: collapse&quot;&gt;&lt;tbody&gt;&lt;tr style=&quot;background-color: #a7c942 ; color: #ffffff ; border: 1px solid #98bf21&quot;&gt;&lt;th align=&quot;left&quot;&gt;task_id&lt;span style=&quot;white-space: pre&quot;&gt;	&lt;/span&gt;&lt;/th&gt;&lt;th align=&quot;left&quot;&gt;int&lt;/th&gt;&lt;th align=&quot;left&quot;&gt;pk&lt;/th&gt;&lt;/tr&gt;&lt;tr style=&quot;border: 1px solid #98bf21&quot;&gt;&lt;td&gt;task_title&lt;span style=&quot;white-space: pre&quot;&gt;	&lt;/span&gt;&lt;/td&gt;&lt;td&gt;varchar(255)&lt;/td&gt;&lt;td&gt;&lt;br&gt;&lt;/td&gt;&lt;/tr&gt;&lt;tr style=&quot;background-color: #eaf2d3 ; border: 1px solid #98bf21&quot;&gt;&lt;td&gt;description&lt;/td&gt;&lt;td&gt;text&lt;/td&gt;&lt;td&gt;&lt;/td&gt;&lt;/tr&gt;&lt;tr style=&quot;border: 1px solid #98bf21&quot;&gt;&lt;td&gt;completed&lt;/td&gt;&lt;td&gt;boolean&lt;/td&gt;&lt;td&gt;&lt;/td&gt;&lt;/tr&gt;&lt;tr style=&quot;background-color: #eaf2d3 ; border: 1px solid #98bf21&quot;&gt;&lt;td&gt;created_at&lt;/td&gt;&lt;td&gt;date/timestamp/timestamptz&lt;/td&gt;&lt;td&gt;&lt;br&gt;&lt;/td&gt;&lt;/tr&gt;&lt;tr&gt;&lt;td&gt;priority&lt;/td&gt;&lt;td&gt;array [ low, medium, high ]&lt;/td&gt;&lt;td&gt;&lt;br&gt;&lt;/td&gt;&lt;/tr&gt;&lt;tr&gt;&lt;td&gt;calendar_item_id&lt;/td&gt;&lt;td&gt;int&lt;/td&gt;&lt;td&gt;fk&lt;/td&gt;&lt;/tr&gt;&lt;tr&gt;&lt;td&gt;calendar_id&lt;/td&gt;&lt;td&gt;int&lt;/td&gt;&lt;td&gt;fk&lt;/td&gt;&lt;/tr&gt;&lt;/tbody&gt;&lt;/table&gt;" style="text;html=1;strokeColor=#c0c0c0;fillColor=#ffffff;overflow=fill;rounded=0;fontSize=25;" vertex="1" parent="1">
          <mxGeometry x="920" y="660" width="660" height="380" as="geometry" />
        </mxCell>
        <mxCell id="U-6AOmyAD6f15KpOmuhh-11" value="Task (todo&#39;s or reminders)" style="text;html=1;resizable=0;autosize=1;align=center;verticalAlign=middle;points=[];fillColor=none;strokeColor=none;rounded=0;fontSize=25;" vertex="1" parent="1">
          <mxGeometry x="920" y="610" width="300" height="40" as="geometry" />
        </mxCell>
      </root>
    </mxGraphModel>
  </diagram>
</mxfile>
